<?xml version="1.0" encoding="UTF-8" standalone="no"?> <svg xmlns="http://www.w3.org/2000/svg" xmlns:xlink="http://www.w3.org/1999/xlink" xmlns:serif="http://www.serif.com/" width="100%" height="100%" viewBox="0 0 252 79" xml:space="preserve" style="fill-rule:evenodd;clip-rule:evenodd;stroke-linejoin:round;stroke-miterlimit:1.41421;"> <path d="M4.386,28l10.211,0l0,0.756l-10.802,0l0,-27.636l0.591,0" style="fill:#fff;fill-rule:nonzero;stroke:#fff;stroke-width:0.24px;"></path> <path d="M4.293,28.099l10.409,0l0,0.762l-11.012,0l0,-27.845l0.603,0l0,27.083Z" style="fill:#fff;fill-rule:nonzero;stroke:#fff;stroke-width:0.15px;stroke-linejoin:miter;stroke-miterlimit:10;"></path> <path d="M39.465,1.12l8.174,27.597l-0.547,0.252l-3.856,-13.527l-7.373,0l-3.981,13.609l-0.551,-0.25l8.134,-27.681Zm-3.39,13.608l6.908,0l-3.518,-11.549" style="fill:#fff;fill-rule:nonzero;stroke:#fff;stroke-width:0.24px;"></path> <path d="M35.808,15.338l-4.043,13.858l-0.558,-0.255l8.258,-28.187l8.3,28.102l-0.556,0.255l-3.915,-13.773l-7.486,0Zm0.215,-0.727l7.013,0l-3.571,-11.761l-3.442,11.761Z" style="fill:#fff;fill-rule:nonzero;stroke:#fff;stroke-width:0.15px;stroke-linejoin:miter;stroke-miterlimit:10;"></path> <path d="M111.909,14.854l0,11.425c-0.907,0.81 -1.872,1.436 -2.903,1.871c-1.032,0.432 -2.111,0.649 -3.242,0.649c-1.495,0 -2.893,-0.362 -4.193,-1.091c-1.299,-0.729 -2.436,-1.723 -3.411,-2.981c-0.972,-1.263 -1.743,-2.732 -2.308,-4.413c-0.567,-1.678 -0.848,-3.47 -0.848,-5.376c0,-1.903 0.281,-3.697 0.848,-5.376c0.565,-1.678 1.336,-3.149 2.308,-4.411c0.975,-1.259 2.112,-2.254 3.411,-2.98c1.3,-0.729 2.698,-1.093 4.193,-1.093c0.96,0 1.886,0.161 2.777,0.482c0.888,0.323 1.717,0.763 2.477,1.323l-0.296,0.631c-0.735,-0.532 -1.519,-0.944 -2.352,-1.239c-0.832,-0.293 -1.701,-0.442 -2.606,-0.442c-1.412,0 -2.731,0.347 -3.96,1.028c-1.228,0.686 -2.295,1.626 -3.196,2.813c-0.907,1.191 -1.625,2.588 -2.163,4.182c-0.538,1.597 -0.806,3.292 -0.806,5.082c0,1.819 0.268,3.529 0.806,5.124c0.538,1.599 1.256,2.984 2.163,4.16c0.901,1.174 1.968,2.105 3.196,2.791c1.229,0.686 2.548,1.03 3.96,1.03c1.019,0 2,-0.188 2.946,-0.566c0.945,-0.378 1.815,-0.917 2.604,-1.617l0,-10.419l-6.057,0l0,-0.587" style="fill:#fff;fill-rule:nonzero;stroke:#fff;stroke-width:0.24px;"></path> <path d="M112.014,14.854l0,11.511c-0.917,0.817 -1.896,1.447 -2.94,1.885c-1.043,0.435 -2.136,0.652 -3.281,0.652c-1.513,0 -2.929,-0.364 -4.245,-1.098c-1.313,-0.735 -2.467,-1.738 -3.452,-3.004c-0.985,-1.271 -1.765,-2.753 -2.338,-4.446c-0.572,-1.69 -0.858,-3.497 -0.858,-5.415c0,-1.918 0.286,-3.725 0.858,-5.418c0.573,-1.69 1.353,-3.173 2.338,-4.443c0.985,-1.27 2.139,-2.271 3.452,-3.003c1.316,-0.734 2.732,-1.101 4.245,-1.101c0.973,0 1.909,0.162 2.812,0.484c0.897,0.326 1.737,0.771 2.507,1.335l-0.299,0.635c-0.744,-0.537 -1.539,-0.952 -2.382,-1.248c-0.842,-0.296 -1.722,-0.446 -2.638,-0.446c-1.429,0 -2.764,0.349 -4.008,1.037c-1.244,0.692 -2.324,1.636 -3.237,2.835c-0.917,1.2 -1.644,2.605 -2.189,4.212c-0.543,1.608 -0.814,3.316 -0.814,5.121c0,1.833 0.271,3.554 0.814,5.162c0.545,1.609 1.272,3.004 2.189,4.191c0.913,1.184 1.993,2.122 3.237,2.812c1.244,0.691 2.579,1.037 4.008,1.037c1.032,0 2.026,-0.19 2.982,-0.571c0.957,-0.379 1.837,-0.924 2.637,-1.629l0,-10.496l-6.133,0l0,-0.591l6.735,0Z" style="fill:#fff;fill-rule:nonzero;stroke:#fff;stroke-width:0.15px;stroke-linejoin:miter;stroke-miterlimit:10;"></path> <rect x="129.194" y="1.036" width="0.596" height="27.807" style="fill:#fff;stroke:#fff;stroke-width:0.24px;"></rect> <rect x="129.09" y="0.932" width="0.803" height="28.015" style="fill:#fff;stroke:#fff;stroke-width:0.15px;stroke-linejoin:miter;stroke-miterlimit:10;"></rect> <path d="M161.307,7.882c0,1.147 -0.149,2.107 -0.446,2.876c-0.298,0.771 -0.671,1.416 -1.123,1.932c-0.454,0.519 -0.94,0.919 -1.459,1.2c-0.526,0.278 -1.01,0.482 -1.463,0.607c-0.454,0.127 -0.988,0.217 -1.61,0.273l-2.244,0l8.26,13.902l-0.468,0.422l-8.641,-14.324l-2.372,0l0,14.114l-0.636,0l0,-27.848l6.101,0c0.622,0.056 1.156,0.146 1.61,0.271c0.453,0.127 0.937,0.329 1.463,0.612c0.519,0.278 1.005,0.671 1.459,1.175c0.452,0.503 0.825,1.149 1.123,1.931c0.297,0.785 0.446,1.736 0.446,2.857m-11.566,6.342l5.465,0c0.026,0 0.184,-0.015 0.464,-0.042c0.283,-0.029 0.629,-0.112 1.04,-0.252c0.408,-0.14 0.841,-0.34 1.289,-0.609c0.453,-0.266 0.876,-0.631 1.272,-1.092c0.397,-0.461 0.722,-1.049 0.976,-1.765c0.254,-0.713 0.381,-1.574 0.381,-2.582c0,-1.009 -0.127,-1.862 -0.381,-2.563c-0.254,-0.698 -0.579,-1.286 -0.976,-1.763c-0.396,-0.474 -0.819,-0.842 -1.272,-1.091c-0.448,-0.253 -0.881,-0.447 -1.289,-0.592c-0.411,-0.137 -0.757,-0.222 -1.04,-0.249c-0.28,-0.027 -0.438,-0.043 -0.464,-0.043l-5.465,0" style="fill:#fff;fill-rule:nonzero;stroke:#fff;stroke-width:0.24px;"></path> <path d="M149.647,29.046l-0.647,0l0,-28.114l6.206,0c0.633,0.057 1.175,0.147 1.637,0.273c0.46,0.13 0.954,0.335 1.487,0.618c0.528,0.282 1.025,0.676 1.485,1.187c0.459,0.508 0.839,1.161 1.141,1.95c0.303,0.791 0.454,1.752 0.454,2.884c0,1.159 -0.151,2.125 -0.454,2.903c-0.302,0.779 -0.682,1.43 -1.141,1.951c-0.46,0.522 -0.957,0.926 -1.485,1.211c-0.533,0.281 -1.027,0.484 -1.487,0.61c-0.462,0.13 -1.004,0.221 -1.637,0.279l-2.283,0l8.399,14.033l-0.472,0.425l-8.791,-14.458l-2.412,0l0,14.248Zm5.559,-27.563l-5.559,0l0,12.763l5.559,0c0.025,0 0.186,-0.017 0.472,-0.043c0.288,-0.028 0.639,-0.112 1.057,-0.253c0.414,-0.141 0.855,-0.345 1.312,-0.615c0.459,-0.27 0.89,-0.637 1.294,-1.102c0.403,-0.466 0.732,-1.062 0.992,-1.782c0.257,-0.72 0.387,-1.59 0.387,-2.607c0,-1.019 -0.13,-1.88 -0.387,-2.586c-0.26,-0.706 -0.589,-1.3 -0.992,-1.782c-0.404,-0.478 -0.835,-0.851 -1.294,-1.103c-0.457,-0.254 -0.898,-0.45 -1.312,-0.596c-0.418,-0.139 -0.769,-0.225 -1.057,-0.252c-0.285,-0.026 -0.446,-0.042 -0.472,-0.042Z" style="fill:#fff;fill-rule:nonzero;stroke:#fff;stroke-width:0.15px;stroke-linejoin:miter;stroke-miterlimit:10;"></path> <path d="M186.344,1.12l8.174,27.597l-0.548,0.252l-3.855,-13.527l-7.374,0l-3.981,13.609l-0.551,-0.25l8.135,-27.681Zm-3.389,13.608l6.906,0l-3.517,-11.549" style="fill:#fff;fill-rule:nonzero;stroke:#fff;stroke-width:0.24px;"></path> <path d="M182.687,15.338l-4.043,13.858l-0.559,-0.255l8.259,-28.187l8.3,28.102l-0.557,0.255l-3.913,-13.773l-7.487,0Zm0.215,-0.727l7.013,0l-3.572,-11.761l-3.441,11.761Z" style="fill:#fff;fill-rule:nonzero;stroke:#fff;stroke-width:0.15px;stroke-linejoin:miter;stroke-miterlimit:10;"></path> <path d="M213.033,1.036l10.802,0l0,0.714l-10.21,0l0,12.308l7.588,0l0,0.711l-7.588,0l0,14.03l-0.592,0" style="fill:#fff;fill-rule:nonzero;stroke:#fff;stroke-width:0.24px;"></path> <path d="M212.931,0.932l11.01,0l0,0.72l-10.407,0l0,12.4l7.733,0l0,0.715l-7.733,0l0,14.137l-0.603,0l0,-27.972Z" style="fill:#fff;fill-rule:nonzero;stroke:#fff;stroke-width:0.15px;stroke-linejoin:miter;stroke-miterlimit:10;"></path> <path d="M239.852,1.036l10.845,0l0,0.714l-10.253,0l0,12.308l7.583,0l0,0.711l-7.583,0l0,13.233l10.252,0l0,0.755l-10.845,0" style="fill:#fff;fill-rule:nonzero;stroke:#fff;stroke-width:0.24px;"></path> <path d="M239.747,0.932l11.055,0l0,0.72l-10.451,0l0,12.4l7.729,0l0,0.715l-7.729,0l0,13.332l10.451,0l0,0.762l-11.055,0l0,-27.929Z" style="fill:#fff;fill-rule:nonzero;stroke:#fff;stroke-width:0.15px;stroke-linejoin:miter;stroke-miterlimit:10;"></path> <path d="M0.12,46.408l0.187,0.498l249.264,0l-0.185,-0.498" style="fill:#fff;fill-rule:nonzero;stroke:#fff;stroke-width:0.24px;"></path> <path d="M57.095,72.816l-2.688,-6.794l-2.73,6.794l5.418,0Zm0.344,0.86l-6.107,0l-1.913,4.708l-1.032,0l6.042,-14.77l5.955,14.77l-1.032,0l-1.913,-4.708Z" style="fill:#fff;fill-rule:nonzero;stroke:#fff;stroke-width:0.24px;"></path> <path d="M66.785,70.709l1.892,0c1.871,0 3.139,-1.097 3.139,-2.902c0,-1.785 -1.204,-2.903 -3.29,-2.903l-1.741,0l0,5.805Zm0,0.86l0,6.815l-0.946,0l0,-14.34l2.773,0c2.344,0 4.193,1.29 4.193,3.741c0,2.386 -1.699,3.784 -4.171,3.784l-1.849,0Z" style="fill:#fff;fill-rule:nonzero;stroke:#fff;stroke-width:0.24px;"></path> <path d="M79.594,70.709l1.892,0c1.871,0 3.139,-1.097 3.139,-2.902c0,-1.785 -1.204,-2.903 -3.29,-2.903l-1.741,0l0,5.805Zm0,0.86l0,6.815l-0.946,0l0,-14.34l2.773,0c2.344,0 4.193,1.29 4.193,3.741c0,2.386 -1.699,3.784 -4.171,3.784l-1.849,0Z" style="fill:#fff;fill-rule:nonzero;stroke:#fff;stroke-width:0.24px;"></path> <path d="M96.748,72.816l-2.688,-6.794l-2.73,6.794l5.418,0Zm0.344,0.86l-6.107,0l-1.913,4.708l-1.032,0l6.042,-14.77l5.955,14.77l-1.032,0l-1.913,-4.708Z" style="fill:#fff;fill-rule:nonzero;stroke:#fff;stroke-width:0.24px;"></path> <path d="M106.437,70.752l1.376,0c2.043,0 3.268,-1.075 3.268,-2.924c0,-1.44 -0.709,-2.193 -1.268,-2.494c-0.603,-0.344 -1.635,-0.43 -2.193,-0.43l-1.183,0l0,5.848Zm5.074,7.632l-4.644,-6.772l-0.43,0l0,6.772l-0.946,0l0,-14.34l2.064,0c1.097,0 2.085,0.086 3.031,0.731c1.119,0.774 1.484,1.956 1.484,3.075c0,1.419 -0.623,2.881 -2.408,3.483c-0.752,0.257 -1.441,0.279 -1.763,0.279l4.687,6.772l-1.075,0Z" style="fill:#fff;fill-rule:nonzero;stroke:#fff;stroke-width:0.24px;"></path> <path d="M121.139,64.904l0,13.48l-0.946,0l0,-13.48l-3.72,0l0,-0.86l8.385,0l0,0.86l-3.719,0Z" style="fill:#fff;fill-rule:nonzero;stroke:#fff;stroke-width:0.24px;"></path> <path d="M131.261,70.128l8.686,0l0,-6.084l0.946,0l0,14.34l-0.946,0l0,-7.396l-8.686,0l0,7.396l-0.946,0l0,-14.34l0.946,0l0,6.084Z" style="fill:#fff;fill-rule:nonzero;stroke:#fff;stroke-width:0.24px;"></path> <path d="M161.097,71.246c0,-3.677 -2.752,-6.536 -6.45,-6.536c-3.697,0 -6.449,2.859 -6.449,6.536c0,3.655 2.752,6.514 6.449,6.514c3.698,0 6.45,-2.859 6.45,-6.514m0.989,0c0,4.128 -3.247,7.374 -7.439,7.374c-4.214,0 -7.439,-3.246 -7.439,-7.374c0,-4.128 3.246,-7.396 7.439,-7.396c4.192,0 7.439,3.268 7.439,7.396" style="fill:#fff;fill-rule:nonzero;stroke:#fff;stroke-width:0.24px;"></path> <path d="M170.765,64.904l0,13.48l-0.946,0l0,-13.48l-3.72,0l0,-0.86l8.385,0l0,0.86l-3.719,0Z" style="fill:#fff;fill-rule:nonzero;stroke:#fff;stroke-width:0.24px;"></path> <path d="M186.819,64.904l-5.934,0l0,5.203l5.805,0l0,0.86l-5.805,0l0,6.558l5.934,0l0,0.859l-6.88,0l0,-14.34l6.88,0l0,0.86Z" style="fill:#fff;fill-rule:nonzero;stroke:#fff;stroke-width:0.24px;"></path> <path d="M194.082,64.044l0,13.48l3.999,0l0,0.86l-4.945,0l0,-14.34l0.946,0Z" style="fill:#fff;fill-rule:nonzero;stroke:#fff;stroke-width:0.24px;"></path> </svg> 