<?xml version="1.0" encoding="UTF-8" standalone="no"?> <svg xmlns="http://www.w3.org/2000/svg" xmlns:xlink="http://www.w3.org/1999/xlink" xmlns:serif="http://www.serif.com/" width="100%" height="100%" viewBox="0 0 364 204" xml:space="preserve" style="fill-rule:evenodd;clip-rule:evenodd;stroke-linejoin:round;stroke-miterlimit:1.41421;"> <g> <path d="M81.293,195.192c-0.074,-1.334 -1.74,-3.5 -2.959,-5.078c-0.393,-0.508 -0.738,-0.955 -0.955,-1.279l-0.751,-3.265c-0.054,-0.453 -0.291,-1.273 -0.528,-2.065c-0.183,-0.617 -0.352,-1.206 -0.433,-1.584c-0.068,-0.353 -0.19,-0.698 -0.305,-0.997c-0.095,-0.269 -0.19,-0.527 -0.224,-0.737c-0.047,-0.297 -0.074,-0.528 -0.095,-0.731c-0.047,-0.386 -0.081,-0.691 -0.243,-1.212c-0.298,-0.982 -0.562,-2.093 -0.813,-3.163c-0.325,-1.361 -0.656,-2.769 -1.083,-4.008c-0.454,-1.294 -0.793,-2.776 -1.111,-4.211c-0.23,-1.003 -0.46,-2.038 -0.731,-3c-0.826,-2.925 -0.948,-4.029 -1.307,-7.32l-0.034,-0.257c-0.02,-0.231 -0.054,-0.609 -0.095,-1.05c-0.094,-1.036 -0.223,-2.457 -0.345,-3.047c-0.061,-0.311 -0.616,-1.557 -1.023,-2.458c-0.135,-0.311 -0.257,-0.582 -0.324,-0.745c-0.901,-2.092 -1.328,-4.19 -1.815,-6.622l-0.102,-0.508c-0.101,-0.494 -0.216,-0.9 -0.331,-1.3c-0.19,-0.657 -0.379,-1.34 -0.502,-2.396c-0.067,-0.624 -0.223,-1.131 -0.392,-1.666c-0.183,-0.596 -0.379,-1.219 -0.447,-2.025c-0.081,-0.955 -0.427,-2.248 -0.765,-3.494c-0.386,-1.422 -0.786,-2.891 -0.786,-3.866c0,-1.023 0.894,-4.564 1.368,-6.467c0.088,-0.345 0.162,-0.637 0.217,-0.852c0.63,-2.561 0.677,-5.486 0.677,-8.262l0,-1.7c0,-0.074 -1.029,-4.306 -1.111,-4.577l-0.115,-0.358c-0.338,-1.077 -1.036,-3.325 -1.036,-3.989c0.007,-0.501 8.18,-28.69 8.484,-29.279l0.014,-0.02l0,-0.02c0,-0.617 0.095,-0.772 0.197,-0.935c0.074,-0.108 0.149,-0.236 0.202,-0.494c0.055,-0.277 0.041,-0.684 0.028,-1.077c-0.007,-0.277 -0.021,-0.541 -0.007,-0.751c0.034,-0.4 0.115,-0.847 0.197,-1.327c0.114,-0.644 0.229,-1.308 0.236,-1.931c0.014,-1.144 0.149,-2.247 0.285,-3.324c0.142,-1.124 0.284,-2.288 0.277,-3.473c0,-1.294 0.17,-2.892 0.339,-4.435c0.088,-0.847 0.176,-1.646 0.23,-2.364c0.102,-1.32 0.027,-2.803 -0.047,-4.232c-0.048,-0.941 -0.095,-1.916 -0.095,-2.85c0,-4.815 -0.149,-9.717 -0.284,-14.457c-0.143,-4.665 -0.285,-9.493 -0.285,-14.158l0,-2.533c0.027,-0.088 0.528,-1.077 0.9,-1.808c0.217,-0.427 0.407,-0.805 0.488,-0.969c2.58,0 2.715,-0.06 3.46,-0.399c0.292,-0.128 0.691,-0.304 1.389,-0.541c1.042,-0.359 1.211,-0.535 1.693,-1.355c0.06,-0.114 0.25,-0.378 0.446,-0.663c0.562,-0.799 0.69,-1.002 0.69,-1.084l0,-0.142c0,-0.21 -1.333,-3.182 -1.774,-3.182c-0.405,0 -1.773,0.717 -3.222,1.483c-1.259,0.663 -2.56,1.347 -2.864,1.347c-0.285,0 -0.577,-0.108 -0.86,-0.217c-0.204,-0.074 -0.393,-0.142 -0.582,-0.176c-0.177,-0.027 -0.312,-0.054 -0.428,-0.068c-0.162,-0.027 -0.29,-0.047 -0.331,-0.067c0.006,-0.014 0.013,-0.041 0.027,-0.061c0.041,-0.108 0.122,-0.292 0.122,-0.616l0,-3.453l-0.054,-0.014c-0.346,-0.095 -0.515,-0.291 -0.678,-0.481c-0.162,-0.189 -0.318,-0.372 -0.616,-0.372c-0.453,0 -2.004,0.799 -2.308,1.002l-0.034,0.02l-0.177,2.736l0.034,0.744l-1.984,-0.65l0.007,-2.789c0,-0.426 -0.46,-0.583 -0.941,-0.752c-0.393,-0.135 -0.8,-0.277 -0.982,-0.562l-0.027,-0.034l-0.751,0l-0.021,0.055c-0.115,0.44 -0.589,1.042 -0.9,1.449c-0.183,0.23 -0.271,0.338 -0.292,0.405l-0.006,0.014l0.514,3.108l0,0.996c0,0.237 -0.231,0.487 -0.352,0.487c-0.338,0 -1.32,-0.501 -2.187,-0.948c-0.894,-0.46 -1.74,-0.887 -2.059,-0.887c-0.44,0 -3.189,1.436 -3.189,1.91l0,1.415c0,0.413 1.578,2.099 2.113,2.262c0.663,0.196 2.722,0.555 3.521,0.636c-0.23,0.752 -0.285,3.711 -0.061,4.442c0.021,0.061 1.476,2.736 1.652,3.026l0,6.088l0.007,0.02c0.115,0.17 1.747,2.018 2.045,2.018c0.629,0 3.02,-1.977 3.304,-2.613c0.434,-0.962 1.476,-3.163 1.862,-3.772l0,12.114c0,0.541 0.028,1.34 0.047,2.262c0.089,3.256 0.237,8.7 -0.459,9.736l-0.008,0.02l0,0.028c0,0.778 -1.428,6.358 -1.787,7.535c-0.21,0.691 -0.38,1.43 -0.542,2.141c-0.121,0.534 -0.243,1.083 -0.386,1.604c-0.081,0.292 -0.176,0.624 -0.271,0.961c-0.257,0.915 -0.555,1.951 -0.71,2.743c-0.468,2.377 -1.22,4.937 -2.127,7.205c-0.528,1.32 -1.333,2.864 -2.119,4.354c-0.345,0.663 -0.677,1.294 -0.976,1.889c-1.198,2.39 -2.376,4.855 -3.52,7.232c-2.844,5.911 -5.782,12.025 -9.168,17.612c-1.795,2.951 -5.844,4.983 -12.392,6.215c-3.643,0.685 -7.847,2.79 -12.493,6.25c-1.307,0.976 -2.133,2.045 -3.013,3.169c-0.44,0.576 -0.907,1.165 -1.436,1.754c-1.374,1.51 -2.64,3.589 -3.548,5.837c-0.155,0.372 -0.304,0.799 -0.467,1.253c-0.278,0.765 -0.562,1.557 -0.846,2.098c-0.562,1.064 -0.657,1.632 -0.813,2.574c-0.054,0.318 -0.115,0.677 -0.196,1.11c-0.068,0.311 -0.149,0.698 -0.243,1.144c-0.461,2.214 -1.159,5.546 -1.165,6.934c-0.359,0.535 -0.895,1.212 -1.416,1.869c-0.23,0.297 -0.46,0.582 -0.656,0.839c-0.941,1.226 -0.989,1.26 -1.754,1.734c-0.203,0.122 -0.454,0.284 -0.793,0.508c-0.128,0.081 -0.317,0.203 -0.548,0.352c-1.571,1.022 -4.841,3.135 -5.18,3.711l-0.054,0.101l6.08,0.616l1.274,0c0.534,0 1.564,-1.584 2.579,-3.21c0.163,-0.256 0.291,-0.466 0.373,-0.588c0.589,-0.867 1.198,-2.736 1.652,-4.104c0.081,-0.25 0.155,-0.487 0.23,-0.704c0.136,-0.406 0.237,-0.941 0.339,-1.462c0.088,-0.481 0.176,-0.929 0.271,-1.172c0.23,-0.576 0.595,-2.038 0.71,-2.715c0.217,-1.347 1.328,-4.022 1.978,-4.767l0.013,-0.021l0,-0.29l0.143,-0.021l0.284,7.929c0,1.05 0.014,6.358 0.365,8.289c0.115,0.649 0.149,1.428 0.176,2.18c0.021,0.69 0.048,1.347 0.136,1.896c0.25,1.597 -0.048,2.065 -0.453,2.714c-0.129,0.204 -0.271,0.427 -0.407,0.705c-0.284,0.576 -0.576,1.185 -0.88,1.828c-0.664,1.415 -1.355,2.878 -2.045,4.029c-0.786,1.32 -0.982,3.095 -1.199,4.97c-0.088,0.772 -0.176,1.565 -0.311,2.336c-0.054,0.324 -0.122,0.826 -0.182,1.361c-0.122,0.948 -0.251,2.011 -0.393,2.438c-0.373,1.123 -0.759,2.423 -1.01,3.385c-0.114,0.434 -0.21,0.847 -0.311,1.253c-0.176,0.759 -0.352,1.469 -0.589,2.241c-0.136,0.44 -0.251,0.955 -0.372,1.511c-0.163,0.69 -0.326,1.408 -0.528,1.97c-0.218,0.596 -0.238,0.765 -0.292,1.137c-0.02,0.156 -0.047,0.353 -0.095,0.623c-0.027,0.19 -0.148,0.474 -0.271,0.779c-0.122,0.291 -0.243,0.595 -0.324,0.88c-0.21,0.759 0.155,2.187 0.399,3.128c0.061,0.231 0.108,0.427 0.149,0.589c0.196,0.888 0.331,1.842 0.467,2.764c0.047,0.345 0.095,0.683 0.142,1.008c0.102,0.664 0.589,2.072 0.846,2.824c0.096,0.27 0.177,0.501 0.177,0.528c0,0.42 -0.244,1.097 -0.501,1.821c-0.305,0.86 -0.623,1.748 -0.63,2.404c-0.041,0.067 -0.081,0.115 -0.122,0.156c-0.094,0.108 -0.163,0.189 -0.163,0.439c0,0.448 1.064,1.05 2.343,1.734c0.353,0.183 0.65,0.346 0.806,0.447l0.027,0.021l0.034,-0.007c0.44,-0.102 3.738,-1.456 3.738,-1.916c0,-0.224 -0.447,-1.829 -0.9,-3.454c-0.102,-0.372 -0.19,-0.663 -0.231,-0.82c-0.122,-0.466 -0.637,-1.123 -1.124,-1.753c-0.494,-0.629 -1.002,-1.286 -1.002,-1.618l0,-2.838c0,-1.123 0.277,-2.708 0.548,-4.245c0.19,-1.096 0.373,-2.133 0.447,-2.966c0.176,-1.97 0.603,-4.435 0.982,-6.608l0.088,-0.528c0.136,-0.786 0.19,-1.531 0.237,-2.33c0.034,-0.467 0.06,-0.947 0.115,-1.436c0.034,-0.324 0.44,-1.624 0.704,-2.491c0.088,-0.271 0.163,-0.508 0.211,-0.677c0.108,-0.352 0.318,-0.832 0.541,-1.348c0.23,-0.542 0.474,-1.097 0.63,-1.591l0.128,-0.386c0.305,-0.927 0.617,-1.889 0.982,-2.742c0.928,-2.187 10.604,-20.036 11.572,-21.377c0.197,0.373 0.874,1.286 1.598,2.248c0.63,0.853 1.287,1.727 1.524,2.133c0.182,0.312 0.569,0.833 1.022,1.443c0.86,1.157 2.038,2.735 2.038,3.243l0,2.126c0,2.241 -0.393,5.83 -0.819,7.523c-0.542,2.146 -0.515,3.717 -0.474,5.701c0.007,0.609 0.02,1.232 0.02,1.93c-0.02,3.602 0.306,4.469 1.28,7.049l0.013,0.04c0.474,1.253 0.935,2.499 1.402,3.772c0.284,0.765 0.576,1.537 0.867,2.323c0.996,2.674 3.128,6.08 4.848,8.815c0.42,0.671 0.813,1.307 1.171,1.897l0.156,0.25c1.368,2.241 1.368,2.241 1.327,4.673c-0.006,0.508 -0.02,1.143 -0.02,1.923l0,8.301l3.724,0l0.02,-0.034c0.217,-0.325 0.84,-0.65 1.436,-0.975c0.765,-0.407 1.483,-0.792 1.483,-1.205l0,-0.285c0,-0.115 -0.115,-0.433 -0.311,-0.975c-0.224,-0.596 -0.487,-1.314 -0.535,-1.687l2.566,0.07l0.839,-1.945l-0.02,-0.034c-0.277,-0.419 -1.462,-1.76 -2.722,-3.189c-1.218,-1.381 -2.742,-3.108 -2.79,-3.284l-0.033,-17.422l0.155,-2.824c0.887,-1.252 1.09,-7.279 1.151,-9.27l0.007,-0.08c0.035,-1.097 0.285,-2.011 0.528,-2.899c0.102,-0.372 0.204,-0.724 0.285,-1.09c0.399,-1.788 0.454,-2.335 0.454,-4.516c0,-2.878 0.406,-5.058 0.833,-7.368c0.08,-0.432 0.162,-0.873 0.243,-1.32c0.101,-0.583 0.23,-1.246 0.372,-1.943c0.447,-2.261 0.949,-4.821 0.949,-6.636l4.969,-2.451l3.115,8.538c0.014,0.644 0.9,3.061 1.544,4.828c0.231,0.623 0.434,1.165 0.528,1.469c0.366,1.091 0.407,1.47 0.461,2.045c0.04,0.352 0.081,0.793 0.216,1.517c0.095,0.535 0.122,1.05 0.15,1.551c0.04,0.779 0.074,1.51 0.365,2.207c0.46,1.104 0.887,2.255 1.3,3.365c0.332,0.907 0.677,1.842 1.049,2.777c0.238,0.582 0.678,2.742 0.773,3.46c0.054,0.454 0.202,0.894 0.351,1.36c0.19,0.576 0.4,1.233 0.488,2.039c0.081,0.711 0.278,1.307 0.467,1.876c0.149,0.433 0.298,0.88 0.393,1.381c0.061,0.305 0.122,0.61 0.183,0.921c0.163,0.86 0.332,1.747 0.542,2.607c0.047,0.169 0.094,0.366 0.148,0.582c0.224,0.894 0.535,2.113 0.664,2.851c0.074,0.433 0.657,3.04 0.82,3.446c0.433,1.056 1.151,4.692 1.496,6.44l0.088,0.461c0.312,1.563 1.273,2.722 2.207,3.839c0.373,0.454 0.759,0.92 1.084,1.394l-0.982,6.596l-0.007,0.033l0.298,0.366l0.034,0c0.739,0 1.422,0.169 2.025,0.325c0.385,0.101 0.751,0.189 1.09,0.23c0.297,0.034 0.69,0.055 1.205,0.055c0.454,0 0.935,-0.014 1.395,-0.028c0.332,-0.006 0.65,-0.013 0.928,-0.02l0.074,0l0,-1.083l-1.456,-4.131Zm-1.713,-186.993c-0.183,-0.021 -3,-1.145 -3.934,-1.558l5.099,0c-0.19,0.454 -0.968,1.558 -1.165,1.558m0.149,-4.355l0.007,0.069l1.022,1.996l-5.417,-0.047l4.388,-2.018Zm-0.907,4.876c-0.413,0.128 -0.874,0.386 -1.294,0.616c-0.392,0.217 -0.765,0.419 -0.907,0.419c-0.19,-0.087 -1.72,-2.2 -2.133,-2.857l4.334,1.822Zm-4.673,-1.225l1.633,2.383l-1.659,0.014l0.026,-2.397Zm-64.956,182.023c-0.426,-1.618 -0.859,-3.298 -1.049,-5.16c0.636,1.131 2.519,4.943 2.519,5.214c0,0.372 -0.684,1.375 -1.023,1.706c-0.135,-0.582 -0.284,-1.158 -0.447,-1.76m0.536,3.047l3.392,2.289l-0.021,0.026l-0.528,0c-0.176,0 -0.514,0.102 -0.873,0.21c-0.237,0.075 -0.481,0.15 -0.65,0.184l-1.598,-1.01l0.278,-1.699Zm4.319,4.334c-0.433,0.209 -2.81,1.279 -3.04,1.374c-0.257,-0.081 -2.288,-1.313 -2.465,-1.496c0.007,-0.109 0.102,-0.372 0.204,-0.657c0.135,-0.386 0.297,-0.86 0.358,-1.212l1.875,1.096l0.021,0.021l0.034,-0.007c0.528,-0.129 0.948,-0.264 1.287,-0.372c0.386,-0.129 0.67,-0.217 0.88,-0.217c0.393,0 0.575,0.319 0.846,1.47m-1.631,-4.768c0.467,0.555 0.521,0.861 0.596,1.24c0.04,0.217 0.081,0.454 0.202,0.765l-3.094,-2.046l0.941,-1.881l0.184,0c0.155,0.413 0.927,1.631 1.171,1.922m-1.733,-4.279c-0.833,-1.449 -2.994,-5.776 -2.994,-6.059c0.014,-0.062 4.429,-9.921 5.472,-11.959l-2.478,18.018Zm-1.924,-10.259c0.075,-0.358 0.196,-0.731 0.311,-1.096c0.122,-0.379 0.238,-0.739 0.312,-1.084l0.014,-0.087c0.277,-1.334 0.284,-1.388 0.744,-2.533c0.109,-0.257 0.258,-0.901 0.4,-1.524c0.108,-0.48 0.216,-0.928 0.291,-1.191c0.196,-0.637 0.44,-1.693 0.616,-2.465l0.048,-0.196l1.855,0.27l-4.591,9.906Zm4.381,-10.617c-0.331,0 -1.063,-0.148 -1.327,-0.44c-0.068,-0.074 -0.095,-0.149 -0.088,-0.237c0.02,-0.155 0.034,-0.317 0.047,-0.481c0.054,-0.562 0.115,-1.144 0.196,-1.705c0.068,-0.468 0.17,-0.955 0.279,-1.463c0.189,-0.915 0.385,-1.855 0.399,-2.75l0.839,7.076l-0.345,0Zm0.894,-1.239l-0.982,-7.794l3.399,0.942l-2.417,6.852Zm-0.799,-8.47l3.372,-6.63l0.007,7.524l-3.379,-0.894Zm54.67,-6.46l-2.769,-2.288l0.576,-0.203l1.042,-0.157l1.151,2.648Zm-5.714,-24.173l-10.388,-7.313l12.237,-1.381l-1.849,8.694Zm-17.267,28.54c0.007,0.149 0.014,0.332 0.021,0.542c0.027,0.725 0.284,2.892 0.325,3.128l-1.321,12.026l-0.068,1.422l0.481,13.17c-0.427,-0.792 -1.124,-2.648 -1.598,-3.92c-0.142,-0.386 -0.271,-0.718 -0.359,-0.942c-0.731,-1.882 -1.219,-3.189 -1.719,-5.484c-0.19,-0.873 -0.529,-2.106 -0.888,-3.413c-0.799,-2.932 -1.794,-6.589 -1.794,-8.478l0,-5.81c0,-1.408 0.325,-2.857 0.637,-4.252c0.203,-0.927 0.399,-1.801 0.507,-2.661c0.203,-1.578 1.389,-7.319 1.402,-7.38l1.103,-6.501c0.414,-0.155 5.288,-1.402 6.115,-1.503c-0.04,1.273 -0.494,4.774 -0.738,5.959c-0.217,1.036 -0.365,2.417 -0.515,3.758c-0.088,0.826 -0.176,1.605 -0.27,2.261c-0.055,0.379 -0.082,0.711 -0.109,1.03c-0.06,0.663 -0.108,1.232 -0.365,1.875c-0.177,0.434 -0.624,2.275 -0.691,2.729c-0.204,1.361 -0.204,1.402 -0.156,2.444m-28.527,-29.834l0.339,0l-0.122,0.027l-0.007,0.081l-0.406,-0.128l0.122,-0.142l0,0.081l0.074,0.081Zm-0.021,-0.216l0.217,-0.231l0.149,-0.291l0.136,-0.136l0.006,-0.019c0.272,-0.502 1.957,-3.44 2.215,-3.637c0.46,0.095 7.001,3.251 8.247,3.962l-9.791,0.311l-1.179,0.041Zm3.38,-4.828l8.728,-4.584l0.007,8.754l-8.735,-4.17Zm5.945,-10.604l10.447,5.282l-0.338,3.331l-0.759,5.343l-9.35,-13.956Zm10.346,15.263c0.488,-0.603 7.414,-4.937 8.613,-5.397c0.048,0.988 0.494,2.553 0.934,4.07c0.325,1.123 0.63,2.186 0.745,2.939c0.04,0.256 0.258,1.278 0.508,2.457c0.372,1.781 0.934,4.456 0.927,4.713l-0.06,0.088l-11.667,-8.87Zm11.308,9.587c-0.968,0.054 -2.214,0.42 -3.332,0.745c-0.914,0.271 -1.787,0.529 -2.268,0.529l-0.352,-0.014l-5.126,-9.839l11.078,8.579Zm-11.62,-10.549l1.03,-8.668l7.285,3.705l0.028,0.108l-8.343,4.855Zm-6.453,-7.597l5.357,8.024l-2.804,0.067l-2.613,0.163l0.06,-8.254Zm5.993,9.114l5.417,10.428l-11.437,0.711l6.02,-11.139Zm2.336,29.4c-0.236,-0.623 -0.575,-2.201 -0.832,-3.399c-0.115,-0.522 -0.211,-0.975 -0.279,-1.253c-0.081,-0.318 -0.162,-0.615 -0.243,-0.907c-0.4,-1.449 -0.684,-2.498 -0.013,-3.846c0.446,-0.894 3.595,-6.284 4.394,-7.482l-3.027,16.887Zm7.78,-0.995c0.088,-0.541 0.284,-1.083 0.501,-1.66c0.278,-0.751 0.569,-1.536 0.604,-2.382l0.087,0.027l3.304,4.13l-4.096,4.475c-0.02,-0.615 -0.122,-1.395 -0.217,-2.146c-0.129,-1.002 -0.257,-1.95 -0.183,-2.444m1.395,-5.072l0,-0.481l1.571,-11.511l1.666,11.83l-2.885,0.162l-0.352,0Zm0,-23.564l5.6,8.566l-3.914,0.298l-1.686,-8.864Zm-0.264,-1.564l3.975,-3.967l1.997,12.994l-5.972,-9.027Zm17.748,-10.434c-0.035,0.84 -0.075,1.639 -0.068,2.349c0.007,0.928 -0.068,1.369 -0.271,1.571c-0.176,0.183 -0.495,0.176 -0.995,0.17c-0.116,0 -0.244,-0.007 -0.38,-0.007c-0.331,0 -0.839,0.013 -1.462,0.122c-3.135,0.548 -6.812,0.832 -8.898,0.968l12.148,-7.645c-0.007,0.82 -0.04,1.659 -0.074,2.472m-13.103,4.909l0.292,-11.525l10.786,3.041l1.693,0.48l-12.771,8.004Zm20.259,-53.688c0,0.974 -0.351,5.233 -0.575,5.911c-0.251,0.744 -1.131,3.527 -1.354,4.665l-3.975,-13.157l5.904,1.917l0,0.664Zm-0.609,-49.248l-5.362,-5.302l7.773,0.494l-2.411,4.808Zm1.036,6.283l-2.072,1.646l0.041,-3.642l2.031,1.996Zm-1.936,-2.829l2.065,-4.05l0.04,6.047l-2.105,-1.997Zm2.214,3.595l0.189,8.43l-0.04,0.007l-2.228,-6.731l2.079,-1.706Zm-1.327,6.216l1.273,3.745l-2.329,0.73l-0.014,-7.576l1.07,3.101Zm1.448,4.408l-0.033,3.63l-2.119,-2.967l2.152,-0.663Zm0.028,5.078c-0.061,0.21 -2.031,3.643 -2.546,4.456l0,-8.214c0.521,0.684 2.492,3.528 2.546,3.758m0.128,1.26l0.034,7.306l-2.424,-3.311l2.39,-3.995Zm0.996,-32.475l0.007,2.96l-7.219,-0.42l0,-0.157l7.212,-2.383Zm-2.919,-5.525l0.63,0.521c-0.013,0.021 -0.02,0.034 -0.027,0.041l-0.047,0l-0.021,0.027c-0.027,0.02 -0.02,0.047 -0.02,0.088l0,1.212c-0.25,-0.23 -0.562,-0.664 -0.562,-1.111l0.047,-0.778Zm0.177,2.688c0.182,0.007 0.196,0.244 0.196,0.352l0,0.908l-1.07,-0.123c0.318,-0.473 0.765,-1.076 0.874,-1.137m-0.793,-2.681l0,1.191c0,0.176 0.021,0.244 0.061,0.312l-1.321,-0.291l-0.013,-0.447c0,-0.352 0.846,-0.698 1.273,-0.765m-1.273,3.033l0,-1.05l1.524,0.291c-0.176,0.4 -0.975,1.389 -1.314,1.389l-0.318,0c0.054,-0.176 0.108,-0.481 0.108,-0.63m-2.796,0.799l6.548,1.239l-7.273,2.519l0.725,-3.758Zm-1.28,-0.989c0.041,-0.074 0.068,-0.142 0.095,-0.202c0.101,-0.231 0.115,-0.258 0.582,-0.367l0,0.8l-0.677,-0.231Zm0.379,-2.546l-0.711,0.346l-0.108,-0.792c0.541,0.013 0.697,0.047 0.819,0.446m-1.55,-0.175l0.114,0.69l-0.487,-0.101l0.373,-0.589Zm-0.007,1.435c0.189,0.068 0.366,0.129 0.65,0.129c0.027,0 0.027,0 0.352,-0.251c0.258,-0.203 0.65,-0.515 0.853,-0.67l0,0.67l-1.212,0.962l-0.129,-0.034c-0.758,-0.176 -0.86,-0.204 -1.043,-0.948c0.224,0.026 0.38,0.081 0.529,0.142m1.124,2.133c-0.244,0.074 -0.325,0.156 -0.38,0.209c-0.033,0.042 -0.04,0.048 -0.094,0.048c-0.881,0 -0.914,-0.209 -0.914,-1.09c0.135,0.061 0.284,0.108 0.42,0.156c0.44,0.142 0.825,0.264 0.968,0.677m0.501,0.42l-0.61,3.466l-1.835,-1.678l2.445,-1.788Zm-2.749,2.464l1.611,1.524c-0.135,0.385 -1.551,0.907 -2.315,1.185c-0.109,0.04 -0.21,0.081 -0.305,0.115l1.009,-2.824Zm-4.314,-2.336c0.17,0 1.666,0.759 2.269,1.104l-3.955,-0.285c0.359,-0.324 1.301,-0.819 1.686,-0.819m-2.478,1.524l3.657,0.19c-0.658,0.271 -2.838,0.514 -3.657,0.541l0,-0.731Zm1.199,2.438c-0.109,-0.008 -0.529,-0.515 -0.86,-1.002l4.319,-0.624c-0.893,0.474 -3.256,1.612 -3.459,1.626m0.785,0.426l0,-0.143l0.352,0c0.156,0 0.691,-0.27 1.551,-0.704c0.738,-0.385 1.571,-0.812 2.018,-0.961l-0.664,2.079l-3.257,-0.271Zm4.205,6.467c-0.298,-0.528 -0.664,-1.192 -0.664,-1.301l0,-3.257c0,-0.298 1.836,-1.055 2.621,-1.381c0.183,-0.075 0.339,-0.135 0.454,-0.189l-1.768,7.333c-0.149,-0.319 -0.399,-0.765 -0.643,-1.205m2.492,9.547l-1.314,-1.314c0.088,-0.06 0.183,-0.142 0.298,-0.23c0.372,-0.305 0.887,-0.718 1.172,-0.731c0.25,0.115 1.442,0.718 1.625,1.035l-1.781,1.24Zm1.11,-2.519c-0.413,-0.25 -0.765,-0.467 -0.941,-0.467l-0.142,0c-0.243,0 -0.514,0.23 -0.792,0.474c-0.231,0.196 -0.461,0.4 -0.691,0.487l0,-4.855c0,-0.86 0.42,-2.187 0.86,-3.589c0.474,-1.482 0.955,-3.019 0.982,-4.123l0.068,0l1.557,12.567c-0.244,-0.094 -0.589,-0.304 -0.901,-0.494m1.572,-0.048l-1.503,-12.661l5.158,5.362l-3.655,7.299Zm0.48,30.146l1.239,-4.997l0.718,-2.559l0.243,-1.382l0.265,-0.562c0.541,0.731 2.546,3.501 2.681,3.799c-0.237,0.562 -5.383,9.527 -6.52,11.375l1.374,-5.674Zm5.288,-4.692l0.136,0.04l-1.124,14.172l-0.494,0c-0.353,0 -1.226,-0.331 -2.154,-0.684c-1.212,-0.46 -2.573,-0.974 -3.433,-1.035l7.069,-12.493Zm-14.944,30.2c0.799,-1.693 1.625,-3.44 2.478,-5.113c0.826,-1.619 1.795,-3.535 2.716,-5.512c0.162,-0.352 0.352,-0.711 0.548,-1.09c0.285,-0.542 0.576,-1.104 0.806,-1.666c0.102,-0.237 0.21,-0.67 0.332,-1.131c0.176,-0.691 0.392,-1.53 0.596,-1.828l3.886,13.57l-14.145,8.471c0.968,-1.856 1.889,-3.813 2.783,-5.701m11.356,-2.019l-6.664,22.84l-0.114,0.013l-7.645,-14.145l14.423,-8.708Zm-14.965,9.094l0.034,-0.013l4.13,7.685l-10.976,5.139c1.26,-1.991 6.602,-11.362 6.812,-12.811m4.442,8.125c0.61,0.949 3.555,6.23 3.636,6.988c0.156,1.45 0.752,3.38 1.328,5.248c0.352,1.138 0.683,2.215 0.907,3.149c-1.788,-0.42 -3.67,-1.009 -5.491,-1.584c-1.741,-0.543 -3.535,-1.104 -5.269,-1.531c-2.335,-0.576 -2.485,-0.731 -3.426,-1.727c-0.223,-0.237 -0.494,-0.528 -0.853,-0.88c-0.393,-0.386 -2.851,-3.196 -3.169,-3.636l12.337,-6.027Zm-12.723,6.812l5.058,5.268l-0.352,11.071c-0.833,-1.672 -4.78,-11.592 -4.78,-12.053l0.074,-4.286Zm-0.4,16.028c0.021,-0.487 0.048,-0.995 0.048,-1.551c0,-2.065 0.074,-4.076 0.156,-6.209c0.027,-0.65 0.047,-1.307 0.074,-1.977l4.679,11.585l-4.124,4.192c-0.074,-0.69 -0.243,-1.3 -0.413,-1.889c-0.149,-0.549 -0.311,-1.111 -0.392,-1.727c-0.102,-0.771 -0.068,-1.578 -0.028,-2.424m-0.243,-16.278l-0.468,16.684l-5.85,-13.807c2.539,-0.602 4.321,-1.55 6.318,-2.877m-15.148,5.477c0.454,-0.215 0.847,-0.399 1.138,-0.547c0.921,-0.468 2.309,-0.732 3.65,-0.996c1.28,-0.251 2.491,-0.481 3.344,-0.873l6.163,14.456l-18.777,-9.5c0.623,-0.717 2.939,-1.808 4.482,-2.54m-1.618,8.675l-8.572,4.543l4.99,-9.717l3.582,5.174Zm-12.581,4.483c0.352,-0.732 0.583,-1.22 1.294,-2.161c0.691,-0.921 1.327,-1.774 2.146,-2.803c0.786,-0.996 3.392,-4.185 4.869,-4.76l-5.336,10.259l-3.454,0.426c0.197,-0.38 0.346,-0.684 0.481,-0.961m-8.403,25.628l-0.704,0.027l-4.794,-0.507c0.813,-0.752 5.668,-4.05 6.21,-4.05c0.358,0 0.778,0.237 1.177,0.468c0.258,0.148 0.495,0.284 0.711,0.359c-0.277,0.758 -2.248,3.703 -2.6,3.703m7.639,-18.377l-0.035,0.007l0.035,0.007c-0.996,1.93 -1.633,3.433 -2.384,6.175c-0.183,0.684 -0.319,1.314 -0.447,1.917c-0.163,0.731 -0.305,1.421 -0.535,2.193c-0.082,0.271 -0.339,1.023 -0.582,1.754c-0.359,1.077 -0.562,1.686 -0.623,1.91l-1.849,-0.664c0.108,-0.454 0.853,-1.381 1.51,-2.207c0.447,-0.556 0.867,-1.085 1.029,-1.381c0.204,-0.387 0.373,-1.633 0.542,-2.838c0.122,-0.914 0.257,-1.862 0.393,-2.343c0.156,-0.575 0.305,-1.55 0.447,-2.492c0.162,-1.069 0.331,-2.187 0.508,-2.627c0.081,-0.196 0.203,-0.521 0.352,-0.914c0.392,-1.035 1.029,-2.702 1.334,-3.237l0.819,3.772c-0.183,0.338 -0.353,0.657 -0.514,0.968m0.473,-4.171c-0.122,-0.386 -0.237,-0.758 -0.317,-1.144c-0.015,-0.061 0,-0.109 0.033,-0.149c0.217,-0.291 1.245,-0.352 2.078,-0.406c0.38,-0.021 0.739,-0.041 1.003,-0.088l-2.268,4.035l-0.068,0.02c-0.014,-0.832 -0.244,-1.564 -0.461,-2.268m1.876,34.655c0.007,-0.698 0.007,-1.395 0.007,-2.092c0,-1.591 0,-3.23 -0.007,-4.848c-0.007,-1.747 1.077,-2.648 2.119,-3.528c0.298,-0.25 0.603,-0.508 0.874,-0.772c0.277,-0.284 0.704,-0.698 1.198,-1.185c1.862,-1.828 4.896,-4.801 5.83,-5.999l-10.021,18.424Zm0.182,-9.377l-1.313,-20.382l-0.176,-0.766l-0.101,0l0,-0.013c0,-0.352 0.006,-0.731 0.08,-0.806c0.008,-0.007 0.014,-0.013 0.035,-0.013c0.08,0 0.257,0.115 0.46,0.251l-0.082,0.06l10.848,10.564l0.535,0.528l-10.286,10.577Zm10.902,-11.004l-6.426,-6.013l-0.853,-0.854l-0.989,-0.846l-0.995,-0.995l-2.444,-2.099l-0.041,-0.041l-0.02,0.014l0.095,-0.298l17.815,-0.453l-6.142,11.585Zm0.637,0.562l1.246,-0.02l10.312,-0.638l-5.268,9.135l-0.081,-0.02l-6.209,-8.457Zm6.121,17.565c0.305,-1.429 0.298,-3.758 0.292,-5.634l0,-0.352c0.345,0.697 0.622,2.451 0.771,3.345l0.041,0.27c0.074,0.461 0.42,1.7 0.697,2.702c0.169,0.596 0.325,1.151 0.332,1.219l0,0.136c-0.034,0.162 -1.056,1.347 -1.794,2.207c-0.549,0.643 -1.07,1.245 -1.287,1.53l-0.054,-0.054c0.061,-0.42 0.907,-4.936 1.002,-5.369m2.126,2.85c0,0.44 -0.014,0.961 -0.02,1.517c-0.041,1.957 -0.095,4.394 0.176,5.552c0.224,0.975 0.481,2.052 0.738,3.128c0.196,0.82 0.393,1.633 0.569,2.398c-0.968,-1.666 -4.469,-8.336 -4.706,-8.79c0.223,-0.324 2.647,-3.202 3.243,-3.805m0.887,20.009c-0.548,-1.069 -2.376,-5.709 -2.613,-6.568c-0.089,-0.332 -0.258,-0.786 -0.434,-1.273c-0.311,-0.847 -0.67,-1.808 -0.67,-2.275c-0.007,-0.779 -0.075,-1.645 -0.149,-2.485c-0.048,-0.644 -0.102,-1.254 -0.122,-1.816c0.948,1.443 5.085,9.298 5.085,9.962l0,0.142c0,0.061 -0.156,0.705 -0.277,1.219c-0.116,0.467 -0.218,0.914 -0.251,1.07c-0.075,0.365 -0.196,0.758 -0.318,1.137c-0.102,0.325 -0.203,0.636 -0.251,0.887m0.535,1.211c0,-0.683 0.183,-1.285 0.359,-1.868c0.136,-0.46 0.265,-0.894 0.311,-1.354l0.366,-1.564l0.522,2.546l1.625,4.604c-0.847,-0.582 -3.088,-2.174 -3.183,-2.364m0.691,1.416c0.792,0.407 2.918,1.958 3.026,2.391l0.068,0.25c0.224,0.867 0.84,3.311 0.935,4.218l-4.029,-6.859Zm5.112,8.593l-0.582,-2.6l0.426,0.556l0.156,1.245l0,0.799Zm0.176,-11.497l-0.203,-5.458l-0.014,-0.278l1.158,-9.859c0.237,0.799 0.379,1.632 0.522,2.437c0.142,0.847 0.291,1.721 0.555,2.567c0.23,0.759 0.392,1.659 0.548,2.539c0.088,0.481 0.177,0.989 0.271,1.45c0.19,0.859 -0.609,2.261 -1.381,3.609c-0.637,1.123 -1.246,2.186 -1.341,2.993l-0.115,0Zm3.081,-4.625l-0.101,16.034l-1.605,-6.562c-0.082,-0.812 -0.508,-2.105 -0.819,-3.053c-0.156,-0.475 -0.292,-0.887 -0.298,-1.002c0.128,-0.305 2.254,-4.422 2.823,-5.417m-2.079,10.834l1.091,3.926c0,0.806 0.257,1.619 0.48,2.337c0.19,0.596 0.372,1.158 0.372,1.625c0,0.616 -1.638,3.887 -2.18,4.842l-0.589,-15.92l0.826,3.19Zm3.663,14.578l-2.667,1.557l-1.314,0.162l0,-1.821l3.981,0.102Zm1.233,2.75c-0.237,0.087 -0.589,0.324 -0.996,0.589c-0.636,0.419 -1.428,0.94 -1.889,0.94l-2.329,0l0,-1.848l1.591,-0.352l2.918,-1.571l0.705,2.242Zm1.889,-5.329l0.535,0.588c-0.048,0.569 -0.149,1.171 -0.63,1.171l-1.415,0c-0.304,0 -0.332,-0.101 -0.386,-0.331c-0.02,-0.068 -0.041,-0.142 -0.074,-0.231c0.209,0.008 0.392,0.015 0.561,0.021c0.149,0.006 0.291,0.014 0.414,0.014c0.67,0 0.928,-0.184 0.995,-1.232m-1.97,-2.066c0.622,0.318 0.975,0.779 1.368,1.362c-0.109,0.236 -0.116,0.48 -0.122,0.683c-0.007,0.358 -0.027,0.508 -0.366,0.508l-1.395,0.014l-1.199,-3.467l0.088,-0.096c0.17,0.021 0.908,0.516 1.26,0.759c0.203,0.136 0.318,0.217 0.366,0.237m-2.161,-2.85c0.305,0.344 1.07,1.246 1.409,1.645c-0.522,-0.203 -1.409,-0.671 -1.409,-0.982l0,-0.663Zm0.326,3.974l0.914,2.843l-4.077,-0.02l2.546,-4.84l0.617,2.017Zm0.345,-35.887l-1.084,10.318l-0.358,-1.678c-0.19,-1.131 -0.475,-2.296 -0.745,-3.42c-0.346,-1.435 -0.704,-2.925 -0.894,-4.367c0.143,-0.339 3.264,-3.935 4.09,-4.74l-1.009,3.887Zm1.144,-5.573l-2.925,-3.677l2.946,-0.169l-0.021,3.846Zm0.481,-6.243c-0.339,-0.684 -0.562,-2.715 -0.724,-4.232c-0.075,-0.725 -0.143,-1.348 -0.217,-1.761c-0.048,-0.291 -0.162,-1.137 -0.299,-2.119c-0.297,-2.106 -0.514,-3.677 -0.609,-4.09l3.867,-0.278l-2.018,12.48Zm2.688,-13.427l-1.93,-12.832l6.583,10.394l-4.653,2.438Zm-1.449,-13.299l0.061,-0.061l9.866,6.954l-3.311,3.541l-6.616,-10.434Zm10.34,7.625l3.595,16.629c-1.178,-2.058 -6.764,-12.485 -6.987,-13.061c0.06,-0.38 2.775,-3.217 3.392,-3.568m2.403,20.048l-3.954,-11.348l5.755,10.786l-1.801,0.562Zm0.942,6.508c-0.102,-0.291 -0.19,-0.501 -0.257,-0.663c-0.217,-0.536 -0.251,-0.617 -0.251,-1.916c0.007,-0.881 -0.088,-1.931 -0.244,-2.675c0.915,0.629 3.373,2.41 3.419,2.667l-1.015,6.853c-0.373,-0.805 -1.429,-3.656 -1.652,-4.266m2.187,5.207l0,-0.128l0.9,-5.783c0.149,0.792 0.251,2.194 0.319,3.087c0.027,0.379 0.047,0.685 0.06,0.833c0.217,1.883 0.488,3.332 0.827,4.435c0.332,1.085 0.588,2.168 0.859,3.318c0.062,0.244 0.122,0.488 0.176,0.738c0.082,0.332 0.237,0.854 0.407,1.402c0.237,0.799 0.501,1.679 0.623,2.289c-0.874,-1.883 -4.171,-9.893 -4.171,-10.191m0.792,3.988l4.252,10.34l0.617,10.346l-4.869,-20.686Zm5.952,25.365l-0.765,-11.87c0.277,0.887 0.806,2.905 1.219,4.469c0.399,1.517 0.779,2.946 0.92,3.379c0.163,0.481 0.285,1.151 0.42,1.862c0.176,0.962 0.359,1.951 0.644,2.471c0.203,0.373 0.589,0.887 0.995,1.43c0.427,0.568 0.86,1.143 1.063,1.536l-4.496,-3.277Zm1.787,2.214c0.089,0.062 0.163,0.095 0.238,0.135c0.054,0.021 0.115,0.048 0.182,0.088c0.156,0.096 0.359,0.251 0.556,0.407c0.06,0.047 0.115,0.088 0.169,0.128c0.223,0.17 0.44,0.312 0.657,0.454c0.318,0.204 0.623,0.4 0.914,0.665c0.128,0.121 0.318,0.262 0.522,0.413c0.358,0.269 0.812,0.602 0.893,0.819c0.047,0.121 0.42,1.699 0.487,2.038l-1.638,0.305l-0.433,0.216l-2.12,0.488l0.718,-4.699l0,-0.022c-0.02,-0.161 -0.684,-0.953 -1.145,-1.435m3.149,8.587c-0.67,0 -1.306,-0.217 -1.862,-0.408c-0.42,-0.141 -0.819,-0.277 -1.178,-0.297c0.04,-1.043 0.426,-1.104 1.104,-1.212c0.251,-0.041 0.534,-0.087 0.846,-0.19c0.42,-0.128 2.397,-0.643 2.83,-0.704l0.853,2.811" style="fill:#fff;fill-rule:nonzero;stroke:#fff;stroke-width:0.24px;"></path> <path d="M116.753,78.683l10.211,0l0,0.756l-10.802,0l0,-27.636l0.591,0" style="fill:#fff;fill-rule:nonzero;stroke:#fff;stroke-width:0.24px;"></path> <path d="M116.66,78.782l10.409,0l0,0.762l-11.012,0l0,-27.845l0.603,0l0,27.083Z" style="fill:#fff;fill-rule:nonzero;stroke:#fff;stroke-width:0.15px;stroke-linejoin:miter;stroke-miterlimit:10;"></path> <path d="M151.832,51.803l8.174,27.597l-0.547,0.252l-3.856,-13.527l-7.373,0l-3.981,13.609l-0.551,-0.25l8.134,-27.681Zm-3.39,13.608l6.908,0l-3.518,-11.549" style="fill:#fff;fill-rule:nonzero;stroke:#fff;stroke-width:0.24px;"></path> <path d="M148.175,66.021l-4.043,13.858l-0.558,-0.255l8.258,-28.187l8.3,28.102l-0.556,0.255l-3.915,-13.773l-7.486,0Zm0.215,-0.727l7.013,0l-3.571,-11.761l-3.442,11.761Z" style="fill:#fff;fill-rule:nonzero;stroke:#fff;stroke-width:0.15px;stroke-linejoin:miter;stroke-miterlimit:10;"></path> <path d="M224.276,65.537l0,11.425c-0.907,0.81 -1.872,1.436 -2.903,1.871c-1.032,0.432 -2.111,0.649 -3.242,0.649c-1.495,0 -2.893,-0.362 -4.193,-1.091c-1.299,-0.729 -2.436,-1.723 -3.411,-2.981c-0.972,-1.263 -1.743,-2.732 -2.308,-4.413c-0.567,-1.678 -0.848,-3.47 -0.848,-5.376c0,-1.903 0.281,-3.697 0.848,-5.376c0.565,-1.678 1.336,-3.149 2.308,-4.411c0.975,-1.259 2.112,-2.254 3.411,-2.98c1.3,-0.729 2.698,-1.093 4.193,-1.093c0.96,0 1.886,0.161 2.777,0.482c0.888,0.323 1.717,0.763 2.477,1.323l-0.296,0.631c-0.735,-0.532 -1.519,-0.944 -2.352,-1.239c-0.832,-0.293 -1.701,-0.442 -2.606,-0.442c-1.412,0 -2.731,0.347 -3.96,1.028c-1.228,0.686 -2.295,1.626 -3.196,2.813c-0.907,1.191 -1.625,2.588 -2.163,4.182c-0.538,1.597 -0.806,3.292 -0.806,5.082c0,1.819 0.268,3.529 0.806,5.124c0.538,1.599 1.256,2.984 2.163,4.16c0.901,1.174 1.968,2.105 3.196,2.791c1.229,0.686 2.548,1.03 3.96,1.03c1.019,0 2,-0.188 2.946,-0.566c0.945,-0.378 1.815,-0.917 2.604,-1.617l0,-10.419l-6.057,0l0,-0.587" style="fill:#fff;fill-rule:nonzero;stroke:#fff;stroke-width:0.24px;"></path> <path d="M224.381,65.537l0,11.511c-0.917,0.817 -1.896,1.447 -2.94,1.885c-1.043,0.435 -2.136,0.652 -3.281,0.652c-1.513,0 -2.929,-0.364 -4.245,-1.098c-1.313,-0.735 -2.467,-1.738 -3.452,-3.004c-0.985,-1.271 -1.765,-2.753 -2.338,-4.446c-0.572,-1.69 -0.858,-3.497 -0.858,-5.415c0,-1.918 0.286,-3.725 0.858,-5.418c0.573,-1.69 1.353,-3.173 2.338,-4.443c0.985,-1.27 2.139,-2.271 3.452,-3.003c1.316,-0.734 2.732,-1.101 4.245,-1.101c0.973,0 1.909,0.162 2.812,0.484c0.897,0.326 1.737,0.771 2.507,1.335l-0.299,0.635c-0.744,-0.537 -1.539,-0.952 -2.382,-1.248c-0.842,-0.296 -1.722,-0.446 -2.638,-0.446c-1.429,0 -2.764,0.349 -4.008,1.037c-1.244,0.692 -2.324,1.636 -3.237,2.835c-0.917,1.2 -1.644,2.605 -2.189,4.212c-0.543,1.608 -0.814,3.316 -0.814,5.121c0,1.833 0.271,3.554 0.814,5.162c0.545,1.609 1.272,3.004 2.189,4.191c0.913,1.184 1.993,2.122 3.237,2.812c1.244,0.691 2.579,1.037 4.008,1.037c1.032,0 2.026,-0.19 2.982,-0.571c0.957,-0.379 1.837,-0.924 2.637,-1.629l0,-10.496l-6.133,0l0,-0.591l6.735,0Z" style="fill:#fff;fill-rule:nonzero;stroke:#fff;stroke-width:0.15px;stroke-linejoin:miter;stroke-miterlimit:10;"></path> <rect x="241.561" y="51.719" width="0.596" height="27.807" style="fill:#fff;stroke:#fff;stroke-width:0.24px;"></rect> <rect x="241.457" y="51.615" width="0.803" height="28.015" style="fill:#fff;stroke:#fff;stroke-width:0.15px;stroke-linejoin:miter;stroke-miterlimit:10;"></rect> <path d="M273.675,58.565c0,1.147 -0.149,2.107 -0.446,2.876c-0.298,0.771 -0.671,1.416 -1.123,1.932c-0.454,0.519 -0.94,0.919 -1.459,1.2c-0.526,0.278 -1.01,0.482 -1.463,0.607c-0.454,0.127 -0.988,0.217 -1.61,0.273l-2.244,0l8.26,13.902l-0.468,0.422l-8.641,-14.324l-2.372,0l0,14.114l-0.636,0l0,-27.848l6.101,0c0.622,0.056 1.156,0.146 1.61,0.271c0.453,0.127 0.937,0.329 1.463,0.612c0.519,0.278 1.005,0.671 1.459,1.175c0.452,0.503 0.825,1.149 1.123,1.931c0.297,0.785 0.446,1.736 0.446,2.857m-11.566,6.342l5.465,0c0.026,0 0.184,-0.015 0.464,-0.042c0.283,-0.029 0.629,-0.112 1.04,-0.252c0.408,-0.14 0.841,-0.34 1.289,-0.609c0.453,-0.266 0.876,-0.631 1.272,-1.092c0.397,-0.461 0.722,-1.049 0.976,-1.765c0.254,-0.713 0.381,-1.574 0.381,-2.582c0,-1.009 -0.127,-1.862 -0.381,-2.563c-0.254,-0.698 -0.579,-1.286 -0.976,-1.763c-0.396,-0.474 -0.819,-0.842 -1.272,-1.091c-0.448,-0.253 -0.881,-0.447 -1.289,-0.592c-0.411,-0.137 -0.757,-0.222 -1.04,-0.249c-0.28,-0.027 -0.438,-0.043 -0.464,-0.043l-5.465,0" style="fill:#fff;fill-rule:nonzero;stroke:#fff;stroke-width:0.24px;"></path> <path d="M262.014,79.729l-0.647,0l0,-28.114l6.206,0c0.633,0.057 1.175,0.147 1.637,0.273c0.46,0.13 0.954,0.335 1.487,0.618c0.528,0.282 1.025,0.676 1.485,1.187c0.459,0.508 0.839,1.161 1.141,1.95c0.303,0.791 0.454,1.752 0.454,2.884c0,1.159 -0.151,2.125 -0.454,2.903c-0.302,0.779 -0.682,1.43 -1.141,1.951c-0.46,0.522 -0.957,0.926 -1.485,1.211c-0.533,0.281 -1.027,0.484 -1.487,0.61c-0.462,0.13 -1.004,0.221 -1.637,0.279l-2.283,0l8.399,14.033l-0.472,0.425l-8.791,-14.458l-2.412,0l0,14.248Zm5.56,-27.563l-5.559,0l0,12.763l5.559,0c0.025,0 0.186,-0.017 0.472,-0.043c0.288,-0.028 0.639,-0.112 1.057,-0.253c0.414,-0.141 0.855,-0.345 1.312,-0.615c0.459,-0.27 0.89,-0.637 1.294,-1.102c0.403,-0.466 0.732,-1.062 0.992,-1.782c0.257,-0.72 0.387,-1.59 0.387,-2.607c0,-1.019 -0.13,-1.88 -0.387,-2.586c-0.26,-0.706 -0.589,-1.3 -0.992,-1.782c-0.404,-0.478 -0.835,-0.851 -1.294,-1.103c-0.457,-0.254 -0.898,-0.45 -1.312,-0.596c-0.418,-0.139 -0.769,-0.225 -1.057,-0.252c-0.286,-0.026 -0.447,-0.042 -0.472,-0.042Z" style="fill:#fff;fill-rule:nonzero;stroke:#fff;stroke-width:0.15px;stroke-linejoin:miter;stroke-miterlimit:10;"></path> <path d="M298.711,51.803l8.174,27.597l-0.548,0.252l-3.855,-13.527l-7.374,0l-3.981,13.609l-0.551,-0.25l8.135,-27.681Zm-3.389,13.608l6.906,0l-3.517,-11.549" style="fill:#fff;fill-rule:nonzero;stroke:#fff;stroke-width:0.24px;"></path> <path d="M295.054,66.021l-4.043,13.858l-0.559,-0.255l8.259,-28.187l8.3,28.102l-0.557,0.255l-3.913,-13.773l-7.487,0Zm0.215,-0.727l7.013,0l-3.572,-11.761l-3.441,11.761Z" style="fill:#fff;fill-rule:nonzero;stroke:#fff;stroke-width:0.15px;stroke-linejoin:miter;stroke-miterlimit:10;"></path> <path d="M325.4,51.719l10.802,0l0,0.714l-10.21,0l0,12.308l7.588,0l0,0.711l-7.588,0l0,14.03l-0.592,0" style="fill:#fff;fill-rule:nonzero;stroke:#fff;stroke-width:0.24px;"></path> <path d="M325.298,51.615l11.01,0l0,0.72l-10.407,0l0,12.4l7.733,0l0,0.715l-7.733,0l0,14.137l-0.603,0l0,-27.972Z" style="fill:#fff;fill-rule:nonzero;stroke:#fff;stroke-width:0.15px;stroke-linejoin:miter;stroke-miterlimit:10;"></path> <path d="M352.219,51.719l10.845,0l0,0.714l-10.253,0l0,12.308l7.584,0l0,0.711l-7.584,0l0,13.233l10.253,0l0,0.755l-10.845,0" style="fill:#fff;fill-rule:nonzero;stroke:#fff;stroke-width:0.24px;"></path> <path d="M352.114,51.615l11.055,0l0,0.72l-10.451,0l0,12.4l7.729,0l0,0.715l-7.729,0l0,13.332l10.451,0l0,0.762l-11.055,0l0,-27.929Z" style="fill:#fff;fill-rule:nonzero;stroke:#fff;stroke-width:0.15px;stroke-linejoin:miter;stroke-miterlimit:10;"></path> <path d="M112.487,97.09l0.187,0.498l249.264,0l-0.185,-0.498" style="fill:#fff;fill-rule:nonzero;stroke:#fff;stroke-width:0.24px;"></path> <path d="M216.583,156.599l2.354,4.77l5.263,0.764l-3.808,3.713l0.898,5.242l-4.707,-2.475l-4.708,2.475l0.898,-5.242l-3.808,-3.713l5.264,-0.764l2.354,-4.77Z" style="fill:#fff;fill-rule:nonzero;stroke:#fff;stroke-width:0.24px;"></path> <path d="M237.213,156.599l2.354,4.77l5.263,0.764l-3.808,3.713l0.899,5.242l-4.708,-2.475l-4.708,2.475l0.899,-5.242l-3.808,-3.713l5.263,-0.764l2.354,-4.77Z" style="fill:#fff;fill-rule:nonzero;stroke:#fff;stroke-width:0.24px;"></path> <path d="M257.843,156.599l2.354,4.77l5.264,0.764l-3.809,3.713l0.899,5.242l-4.708,-2.475l-4.708,2.475l0.899,-5.242l-3.808,-3.713l5.263,-0.764l2.354,-4.77Z" style="fill:#fff;fill-rule:nonzero;stroke:#fff;stroke-width:0.24px;"></path> <path d="M204.215,146.617l0.857,-7.791l3.264,6.967l3.264,-6.967l0.857,7.791l-0.496,0l-0.667,-6.052c0,0 -2.946,6.323 -2.958,6.323l-2.958,-6.323l-0.667,6.052l-0.496,0Z" style="fill:#fff;fill-rule:nonzero;stroke:#fff;stroke-width:0.24px;"></path> <path d="M215.524,144.279c0,1.039 0.644,2.033 1.807,2.033c1.151,0 1.783,-0.971 1.783,-2.033c0,-1.366 -1.005,-1.942 -1.795,-1.942c-0.915,0 -1.795,0.689 -1.795,1.942m3.567,-2.27l0.453,0l0,4.607l-0.453,0l0,-0.824c-0.463,0.712 -1.196,0.948 -1.795,0.948c-1.208,0 -2.247,-0.914 -2.247,-2.427c0,-1.423 0.904,-2.405 2.247,-2.405c0.723,0 1.355,0.282 1.795,0.903l0,-0.802Z" style="fill:#fff;fill-rule:nonzero;stroke:#fff;stroke-width:0.24px;"></path> <path d="M222.304,142.01l0.451,0l0,0.599c0.169,-0.396 0.52,-0.701 1.017,-0.701c0.124,0 0.315,0.023 0.485,0.113l-0.225,0.407c-0.046,-0.034 -0.136,-0.09 -0.339,-0.09c-0.926,0 -0.938,1.23 -0.938,1.806l0,2.473l-0.451,0l0,-4.607Z" style="fill:#fff;fill-rule:nonzero;stroke:#fff;stroke-width:0.24px;"></path> <path d="M228.099,142.856c-0.158,-0.361 -0.474,-0.519 -0.802,-0.519c-0.518,0 -0.778,0.395 -0.778,0.734c0,0.452 0.361,0.599 0.812,0.779c0.463,0.18 0.893,0.305 1.186,0.678c0.192,0.238 0.237,0.486 0.237,0.745c0,1.05 -0.79,1.468 -1.502,1.468c-0.767,0 -1.4,-0.452 -1.591,-1.219l0.44,-0.137c0.158,0.611 0.644,0.928 1.151,0.928c0.587,0 1.028,-0.418 1.028,-1.018c0,-0.518 -0.327,-0.71 -1.028,-0.994c-0.463,-0.191 -0.801,-0.338 -1.005,-0.608c-0.101,-0.136 -0.203,-0.328 -0.203,-0.6c0,-0.7 0.531,-1.184 1.231,-1.184c0.542,0 0.994,0.248 1.209,0.744l-0.385,0.203Z" style="fill:#fff;fill-rule:nonzero;stroke:#fff;stroke-width:0.24px;"></path> <path d="M234.685,143.94c-0.112,-0.915 -0.79,-1.603 -1.705,-1.603c-0.937,0 -1.604,0.712 -1.728,1.603l3.433,0Zm-3.467,0.429c0,1.175 0.859,1.943 1.83,1.943c0.745,0 1.31,-0.441 1.604,-1.051l0.384,0.226c-0.272,0.519 -0.881,1.253 -2.022,1.253c-1.434,0 -2.269,-1.061 -2.269,-2.404c0,-1.604 1.106,-2.428 2.235,-2.428c1.242,0 2.18,0.993 2.18,2.461l-3.942,0Z" style="fill:#fff;fill-rule:nonzero;stroke:#fff;stroke-width:0.24px;"></path> <path d="M238.076,146.617l-0.452,0l0,-4.607l0.452,0l0,4.607Zm-0.632,-6.143c0,-0.248 0.18,-0.417 0.406,-0.417c0.226,0 0.407,0.169 0.407,0.417c0,0.249 -0.181,0.418 -0.407,0.418c-0.226,0 -0.406,-0.169 -0.406,-0.418" style="fill:#fff;fill-rule:nonzero;stroke:#fff;stroke-width:0.24px;"></path> <rect x="240.833" y="138.386" width="0.452" height="8.231" style="fill:#fff;stroke:#fff;stroke-width:0.24px;"></rect> <rect x="244.042" y="138.386" width="0.451" height="8.231" style="fill:#fff;stroke:#fff;stroke-width:0.24px;"></rect> <path d="M250.898,143.94c-0.112,-0.915 -0.79,-1.603 -1.706,-1.603c-0.936,0 -1.603,0.712 -1.727,1.603l3.433,0Zm-3.468,0.429c0,1.175 0.859,1.943 1.831,1.943c0.745,0 1.31,-0.441 1.604,-1.051l0.383,0.226c-0.272,0.519 -0.881,1.253 -2.022,1.253c-1.434,0 -2.269,-1.061 -2.269,-2.404c0,-1.604 1.106,-2.428 2.235,-2.428c1.242,0 2.18,0.993 2.18,2.461l-3.942,0Z" style="fill:#fff;fill-rule:nonzero;stroke:#fff;stroke-width:0.24px;"></path> <path d="M261.417,139.537l-3.117,0l0,2.732l3.049,0l0,0.452l-3.049,0l0,3.444l3.117,0l0,0.452l-3.613,0l0,-7.532l3.613,0l0,0.452Z" style="fill:#fff;fill-rule:nonzero;stroke:#fff;stroke-width:0.24px;"></path> <path d="M265.699,142.856c-0.157,-0.361 -0.474,-0.519 -0.802,-0.519c-0.518,0 -0.778,0.395 -0.778,0.734c0,0.452 0.361,0.599 0.812,0.779c0.463,0.18 0.893,0.305 1.186,0.678c0.192,0.238 0.237,0.486 0.237,0.745c0,1.05 -0.79,1.468 -1.502,1.468c-0.767,0 -1.4,-0.452 -1.591,-1.219l0.44,-0.137c0.158,0.611 0.644,0.928 1.151,0.928c0.587,0 1.028,-0.418 1.028,-1.018c0,-0.518 -0.327,-0.71 -1.028,-0.994c-0.463,-0.191 -0.801,-0.338 -1.005,-0.608c-0.101,-0.136 -0.203,-0.328 -0.203,-0.6c0,-0.7 0.531,-1.184 1.231,-1.184c0.542,0 0.994,0.248 1.208,0.744l-0.384,0.203Z" style="fill:#fff;fill-rule:nonzero;stroke:#fff;stroke-width:0.24px;"></path> <path d="M269.124,142.439l0,4.178l-0.452,0l0,-4.178l-0.508,0l0,-0.429l0.508,0l0,-1.649l0.452,0l0,1.649l0.802,0l0,0.429l-0.802,0Z" style="fill:#fff;fill-rule:nonzero;stroke:#fff;stroke-width:0.24px;"></path> <path d="M169.462,123.499l-2.688,-6.794l-2.73,6.794l5.418,0Zm0.344,0.86l-6.107,0l-1.913,4.708l-1.032,0l6.042,-14.77l5.955,14.77l-1.032,0l-1.913,-4.708Z" style="fill:#fff;fill-rule:nonzero;stroke:#fff;stroke-width:0.24px;"></path> <path d="M179.152,121.392l1.892,0c1.871,0 3.139,-1.097 3.139,-2.902c0,-1.785 -1.204,-2.903 -3.29,-2.903l-1.741,0l0,5.805Zm0,0.86l0,6.815l-0.946,0l0,-14.34l2.773,0c2.344,0 4.193,1.29 4.193,3.741c0,2.386 -1.699,3.784 -4.171,3.784l-1.849,0Z" style="fill:#fff;fill-rule:nonzero;stroke:#fff;stroke-width:0.24px;"></path> <path d="M191.961,121.392l1.892,0c1.871,0 3.139,-1.097 3.139,-2.902c0,-1.785 -1.204,-2.903 -3.29,-2.903l-1.741,0l0,5.805Zm0,0.86l0,6.815l-0.946,0l0,-14.34l2.773,0c2.344,0 4.193,1.29 4.193,3.741c0,2.386 -1.699,3.784 -4.171,3.784l-1.849,0Z" style="fill:#fff;fill-rule:nonzero;stroke:#fff;stroke-width:0.24px;"></path> <path d="M209.115,123.499l-2.688,-6.794l-2.73,6.794l5.418,0Zm0.344,0.86l-6.107,0l-1.913,4.708l-1.032,0l6.042,-14.77l5.955,14.77l-1.032,0l-1.913,-4.708Z" style="fill:#fff;fill-rule:nonzero;stroke:#fff;stroke-width:0.24px;"></path> <path d="M218.805,121.435l1.376,0c2.043,0 3.268,-1.075 3.268,-2.924c0,-1.44 -0.709,-2.193 -1.268,-2.494c-0.603,-0.344 -1.635,-0.43 -2.193,-0.43l-1.183,0l0,5.848Zm5.074,7.632l-4.644,-6.772l-0.43,0l0,6.772l-0.946,0l0,-14.34l2.064,0c1.097,0 2.085,0.086 3.031,0.731c1.119,0.774 1.484,1.956 1.484,3.075c0,1.419 -0.623,2.881 -2.408,3.483c-0.752,0.257 -1.441,0.279 -1.763,0.279l4.687,6.772l-1.075,0Z" style="fill:#fff;fill-rule:nonzero;stroke:#fff;stroke-width:0.24px;"></path> <path d="M233.507,115.586l0,13.48l-0.946,0l0,-13.48l-3.72,0l0,-0.86l8.385,0l0,0.86l-3.719,0Z" style="fill:#fff;fill-rule:nonzero;stroke:#fff;stroke-width:0.24px;"></path> <path d="M243.628,120.811l8.686,0l0,-6.084l0.946,0l0,14.34l-0.946,0l0,-7.396l-8.686,0l0,7.396l-0.946,0l0,-14.34l0.946,0l0,6.084Z" style="fill:#fff;fill-rule:nonzero;stroke:#fff;stroke-width:0.24px;"></path> <path d="M273.464,121.929c0,-3.677 -2.752,-6.536 -6.45,-6.536c-3.697,0 -6.449,2.859 -6.449,6.536c0,3.655 2.752,6.514 6.449,6.514c3.698,0 6.45,-2.859 6.45,-6.514m0.989,0c0,4.128 -3.247,7.374 -7.439,7.374c-4.214,0 -7.439,-3.246 -7.439,-7.374c0,-4.128 3.246,-7.396 7.439,-7.396c4.192,0 7.439,3.268 7.439,7.396" style="fill:#fff;fill-rule:nonzero;stroke:#fff;stroke-width:0.24px;"></path> <path d="M283.132,115.586l0,13.48l-0.946,0l0,-13.48l-3.72,0l0,-0.86l8.385,0l0,0.86l-3.719,0Z" style="fill:#fff;fill-rule:nonzero;stroke:#fff;stroke-width:0.24px;"></path> <path d="M299.187,115.586l-5.935,0l0,5.203l5.805,0l0,0.86l-5.805,0l0,6.558l5.935,0l0,0.859l-6.88,0l0,-14.34l6.88,0l0,0.86Z" style="fill:#fff;fill-rule:nonzero;stroke:#fff;stroke-width:0.24px;"></path> <path d="M306.449,114.727l0,13.48l3.999,0l0,0.86l-4.945,0l0,-14.34l0.946,0Z" style="fill:#fff;fill-rule:nonzero;stroke:#fff;stroke-width:0.24px;"></path> </g> </svg> 